<mxfile host="app.diagrams.net" modified="2021-04-30T07:28:03.306Z" agent="5.0 (X11)" etag="cThfH8gyLSC7gqpUfT8x" version="14.6.9" type="github">
  <diagram name="Page-1" id="e7e014a7-5840-1c2e-5031-d8a46d1fe8dd">
    <mxGraphModel dx="1422" dy="674" grid="1" gridSize="10" guides="1" tooltips="1" connect="1" arrows="1" fold="1" page="1" pageScale="1" pageWidth="1169" pageHeight="826" background="#ffffff" math="0" shadow="0">
      <root>
        <mxCell id="0" />
        <mxCell id="1" parent="0" />
        <mxCell id="2" value="Farmer" style="swimlane;whiteSpace=wrap" parent="1" vertex="1">
          <mxGeometry x="160" y="130" width="170" height="462" as="geometry" />
        </mxCell>
        <mxCell id="5" value="" style="ellipse;shape=startState;fillColor=#000000;strokeColor=#ff0000;" parent="2" vertex="1">
          <mxGeometry x="60" y="40" width="30" height="30" as="geometry" />
        </mxCell>
        <mxCell id="6" value="" style="edgeStyle=elbowEdgeStyle;elbow=horizontal;verticalAlign=bottom;endArrow=open;endSize=8;strokeColor=#FF0000;endFill=1;rounded=0" parent="2" source="5" target="7" edge="1">
          <mxGeometry x="60" y="40" as="geometry">
            <mxPoint x="75" y="110" as="targetPoint" />
          </mxGeometry>
        </mxCell>
        <mxCell id="7" value="Harvest" style="" parent="2" vertex="1">
          <mxGeometry x="20" y="92" width="110" height="50" as="geometry" />
        </mxCell>
        <mxCell id="8" value="Process" style="" parent="2" vertex="1">
          <mxGeometry x="20" y="162" width="110" height="50" as="geometry" />
        </mxCell>
        <mxCell id="9" value="" style="endArrow=open;strokeColor=#FF0000;endFill=1;rounded=0" parent="2" source="7" target="8" edge="1">
          <mxGeometry relative="1" as="geometry" />
        </mxCell>
        <mxCell id="h6p1PAtPwCDaE5yq3Kyp-49" style="edgeStyle=orthogonalEdgeStyle;rounded=0;orthogonalLoop=1;jettySize=auto;html=1;exitX=0.5;exitY=1;exitDx=0;exitDy=0;" edge="1" parent="2" source="10" target="h6p1PAtPwCDaE5yq3Kyp-47">
          <mxGeometry relative="1" as="geometry" />
        </mxCell>
        <mxCell id="10" value="Pack" style="" parent="2" vertex="1">
          <mxGeometry x="20" y="232" width="110" height="50" as="geometry" />
        </mxCell>
        <mxCell id="11" value="" style="endArrow=open;strokeColor=#FF0000;endFill=1;rounded=0" parent="2" source="8" target="10" edge="1">
          <mxGeometry relative="1" as="geometry" />
        </mxCell>
        <mxCell id="h6p1PAtPwCDaE5yq3Kyp-47" value="Sell" style="" vertex="1" parent="2">
          <mxGeometry x="20" y="302" width="110" height="50" as="geometry" />
        </mxCell>
        <mxCell id="3" value="Distributor" style="swimlane;whiteSpace=wrap" parent="1" vertex="1">
          <mxGeometry x="330" y="130" width="160" height="462" as="geometry" />
        </mxCell>
        <mxCell id="13" value="" style="ellipse;shape=startState;fillColor=#000000;strokeColor=#ff0000;" parent="3" vertex="1">
          <mxGeometry x="60" y="40" width="30" height="30" as="geometry" />
        </mxCell>
        <mxCell id="14" value="" style="edgeStyle=elbowEdgeStyle;elbow=horizontal;verticalAlign=bottom;endArrow=open;endSize=8;strokeColor=#FF0000;endFill=1;rounded=0" parent="3" source="13" target="16" edge="1">
          <mxGeometry x="40" y="20" as="geometry">
            <mxPoint x="75" y="110" as="targetPoint" />
          </mxGeometry>
        </mxCell>
        <mxCell id="16" value="Buy" style="" parent="3" vertex="1">
          <mxGeometry x="20" y="302" width="110" height="50" as="geometry" />
        </mxCell>
        <mxCell id="18" value="Ship" style="" parent="3" vertex="1">
          <mxGeometry x="20" y="372" width="110" height="50" as="geometry" />
        </mxCell>
        <mxCell id="19" value="" style="endArrow=open;strokeColor=#FF0000;endFill=1;rounded=0" parent="3" source="16" target="18" edge="1">
          <mxGeometry relative="1" as="geometry" />
        </mxCell>
        <mxCell id="4" value="Retailer" style="swimlane;whiteSpace=wrap" parent="1" vertex="1">
          <mxGeometry x="490" y="130" width="150" height="462" as="geometry" />
        </mxCell>
        <mxCell id="33" value="Receive" style="" parent="4" vertex="1">
          <mxGeometry x="20" y="372" width="110" height="50" as="geometry" />
        </mxCell>
        <mxCell id="h6p1PAtPwCDaE5yq3Kyp-53" style="edgeStyle=orthogonalEdgeStyle;rounded=0;orthogonalLoop=1;jettySize=auto;html=1;" edge="1" parent="4" source="38" target="33">
          <mxGeometry relative="1" as="geometry" />
        </mxCell>
        <mxCell id="38" value="" style="ellipse;shape=endState;fillColor=#000000;strokeColor=#ff0000" parent="4" vertex="1">
          <mxGeometry x="60" y="42" width="30" height="30" as="geometry" />
        </mxCell>
        <mxCell id="20" value="" style="endArrow=open;strokeColor=#FF0000;endFill=1;rounded=0;exitX=1;exitY=0.5;exitDx=0;exitDy=0;entryX=0;entryY=0.5;entryDx=0;entryDy=0;" parent="1" source="h6p1PAtPwCDaE5yq3Kyp-47" target="16" edge="1">
          <mxGeometry relative="1" as="geometry" />
        </mxCell>
        <mxCell id="h6p1PAtPwCDaE5yq3Kyp-41" value="Customer" style="swimlane;whiteSpace=wrap" vertex="1" parent="1">
          <mxGeometry x="640" y="130" width="150" height="462" as="geometry" />
        </mxCell>
        <mxCell id="h6p1PAtPwCDaE5yq3Kyp-42" value="Purchase" style="" vertex="1" parent="h6p1PAtPwCDaE5yq3Kyp-41">
          <mxGeometry x="20" y="372" width="110" height="50" as="geometry" />
        </mxCell>
        <mxCell id="h6p1PAtPwCDaE5yq3Kyp-54" style="edgeStyle=orthogonalEdgeStyle;rounded=0;orthogonalLoop=1;jettySize=auto;html=1;entryX=0.5;entryY=0;entryDx=0;entryDy=0;" edge="1" parent="h6p1PAtPwCDaE5yq3Kyp-41" source="h6p1PAtPwCDaE5yq3Kyp-45" target="h6p1PAtPwCDaE5yq3Kyp-42">
          <mxGeometry relative="1" as="geometry">
            <mxPoint x="65" y="362" as="targetPoint" />
          </mxGeometry>
        </mxCell>
        <mxCell id="h6p1PAtPwCDaE5yq3Kyp-45" value="" style="ellipse;shape=endState;fillColor=#000000;strokeColor=#ff0000" vertex="1" parent="h6p1PAtPwCDaE5yq3Kyp-41">
          <mxGeometry x="60" y="42" width="30" height="30" as="geometry" />
        </mxCell>
        <mxCell id="h6p1PAtPwCDaE5yq3Kyp-51" style="edgeStyle=orthogonalEdgeStyle;rounded=0;orthogonalLoop=1;jettySize=auto;html=1;" edge="1" parent="1" source="18" target="33">
          <mxGeometry relative="1" as="geometry" />
        </mxCell>
        <mxCell id="h6p1PAtPwCDaE5yq3Kyp-52" style="edgeStyle=orthogonalEdgeStyle;rounded=0;orthogonalLoop=1;jettySize=auto;html=1;" edge="1" parent="1" source="33" target="h6p1PAtPwCDaE5yq3Kyp-42">
          <mxGeometry relative="1" as="geometry" />
        </mxCell>
      </root>
    </mxGraphModel>
  </diagram>
</mxfile>
